<svg xmlns="http://www.w3.org/2000/svg" viewBox="0 0 2240 692" xml:space="preserve">
  <path fill="#FFF" d="M172.638 527.337c-49.729-33.907-83.157-79.435-100.468-136.64-12.148-40.143-13.22-80.796-4.418-121.79 12.863-59.898 44.395-107.96 93.056-144.548C211.825 86 269.788 69.788 333.17 76.33c77.342 7.982 137.83 45.51 181.476 109.59 22.784 33.451 36.004 70.844 40.014 111.179 3.315 33.344-.174 66.104-10.338 98.129-14.925 47.03-42.017 85.734-79.72 117.25-1.022.854-2.02 1.737-3.036 2.598-.883.747-1.776 1.482-3.1 2.586-2.812-3.566-5.831-6.832-8.209-10.512-9.386-14.53-18.569-29.19-27.83-43.799-1.557-2.455-1.976-4.199.81-6.68 32.09-28.583 52.989-63.92 60.371-106.265 8.625-49.471-2.56-94.949-32.232-135.44-32.104-43.813-76.158-66.785-129.766-72.315-1.779-8.949-5.356-12.646-12.436-12.854-7.203-.212-11.24 3.55-13.848 13.102-18.471 2.09-36.686 5.997-53.882 13.393-55.226 23.75-90.515 65.109-105.225 123.154-11.938 47.106-4.252 91.969 20.662 133.586 24.407 40.77 58.838 69.23 104.976 82.447 5.14 1.473 7.505 4.195 9.807 8.978 9.154 19.029 19.085 37.685 28.782 56.452 1.284 2.485 2.878 4.81 4.984 8.294-48.845-1.311-92.597-15.255-132.792-41.865zm507.095-129.053c14.032 27.04 35.564 43.774 65.335 48.742 23.242 3.878 43.023-5.275 60.32-19.682 21.762-18.126 32.138-41.816 31.994-70.293-.223-43.988-.059-87.979-.059-131.968v-5.754h62.342c.086.531.32 1.297.32 2.062 0 48.821.585 97.653-.269 146.46-.484 27.677-10.646 52.64-27.23 74.85-21.343 28.582-49.705 46.651-84.43 53.766-21.067 4.316-42.62 4.04-63.956.527-35.086-5.777-63.611-23.037-85.71-50.582-19.78-24.656-30.31-52.974-30.371-84.807-.093-47.279-.024-94.558-.024-142.222h62.007v5.372c0 43.157-.158 86.314.101 129.47.073 12.065 1.294 24.143 5.854 35.557 1.103 2.76 2.423 5.435 3.776 8.502zM1878.001 452v46.712h-62.5V330.96c-5.622 4.14-10.416 7.53-15.06 11.115-19.847 15.325-39.654 30.7-59.465 46.072-3.382 2.624-14.514 2.658-17.89.054-44.544-34.344-89.072-68.707-133.692-102.951-2.949-2.263-4.195-4.543-4.158-8.302.189-19.13.087-38.26.087-57.695 7.44-.49 13.683-.42 20.134 4.625 41.84 32.723 84.096 64.914 126.515 97.509 11.856-9.087 23.695-18.14 35.512-27.221 31.858-24.483 63.586-49.14 95.739-73.23 3.434-2.573 9.331-1.858 14.778-2.787V452zM980 320h200.679v50.94h-178.772c0 19.322-.389 38.24.17 57.132.266 8.998 10.519 18.677 19.542 19.948 4.253.599 8.58.936 12.874.94 63.48.058 126.962.04 190.443.04h5.755v50h-4.662c-71.145 0-142.29-.012-213.436.009-17.31.005-32.394-5.931-45.582-16.925-18.88-15.737-28.03-35.975-27.98-60.518.068-33.638.017-67.277.017-101.566H980zm331.483 44.543c-19.987-10.62-32.289-26.876-38.894-48.545h28.491c9.333 0 18.666-.026 27.999.01 6.547.025 12.938-.54 19.082 3.564 3.252 2.172 8.266 2.308 12.49 2.33 32.497.175 64.995.096 97.493.097 24.992.002 46.54 8.716 63.713 26.79 19.72 20.753 27.872 45.509 24.248 74.264-4.377 34.727-31.412 66.57-70.188 74.639-4.187.87-8.55 1.234-12.833 1.246-36.164.098-72.343.672-108.49-.128-30.322-.67-53.881-15.05-70.363-40.295-10.506-16.09-15.045-33.9-13.791-48.1h61.324c1.748 5.763 2.73 11.74 5.301 16.93 6.255 12.626 16.66 20.313 30.94 20.714 25.28.71 50.584 1.036 75.871.804 15.893-.147 28.95-6.51 36.605-21.327 12.727-24.637-5.073-53.78-31.65-54.457-33.142-.846-66.319-.359-99.48-.388-13.093-.011-25.716-2.084-37.868-8.148zm756.857 11.288c-16.873-33.132-33.543-65.951-50.386-98.681-1.666-3.238-1.439-5.768.14-8.815 7.92-15.278 15.77-30.592 23.45-45.99 1.317-2.64 2.868-3.905 5.689-3.33 3.763.769 8.174-2.163 10.991 3.598 10.395 21.253 21.325 42.245 32.063 63.33 27.345 53.696 54.674 107.401 82.057 161.078 8.717 17.089 17.583 34.101 26.655 51.678-1.467.126-2.514.293-3.561.293-20.488.016-40.976-.026-61.464.06-2.552.01-4.072-.467-5.378-3.037-17.173-33.793-34.554-67.481-51.755-101.26-3.078-6.045-5.578-12.383-8.5-18.924z"/>
  <path fill="#FFF" d="M450.242 573.82c25.86 15.92 53.66 22.835 84.823 21.13-2.066 2.626-3.453 4.563-5.014 6.346-13.164 15.036-26.418 29.993-39.486 45.112-2.104 2.435-4.165 2.53-7.008 2.09-44.192-6.821-80.157-28.526-109.931-61.113-33.892-37.095-55.249-81.076-69.603-128.779-2.148-7.138-4.05-14.351-6.02-21.543-.21-.77-.109-1.626-.104-1.53l62.244-4.417c4.72 13.4 9.453 27.893 14.905 42.111 13.05 34.03 31.34 64.681 59.291 88.772 4.9 4.223 10.38 7.772 15.903 11.82zM993.98 280.002h-53.312c2.24-12.972 7.664-24.032 15.997-33.775 15.16-17.726 34.021-27.311 57.677-27.271 70.286.117 140.572.042 210.858.042h5.585v50.68h-5.931c-64.957 0-129.913.079-194.869-.092-8.977-.023-16.627 1.966-22.596 9.009-.708.835-2.24 1.276-3.423 1.345-3.154.182-6.325.062-9.986.062zm538.014 16.858h-45.757c-2.794-6.304-4.66-12.494-8.064-17.672-3.983-6.057-10.516-9.176-17.865-9.203-34.65-.127-69.3-.148-103.947.08-3.638.024-7.724 1.212-10.774 3.158-3.63 2.317-7.163 2.832-11.195 2.816-20.48-.082-40.961-.038-61.81-.038 2.46-11.424 7.658-21.05 14.974-29.64 15.119-17.753 33.963-27.467 57.63-27.397 42.48.124 84.963.374 127.439-.07 35.488-.372 69.02 29.122 73.358 63.8.553 4.42.91 8.865 1.446 14.166h-15.435zm409.608 121.71c17.536-34.36 34.884-68.4 52.698-103.355 1.688 3.276 2.89 5.585 4.07 7.903 9.46 18.56 19 37.078 28.251 55.74 1.002 2.02 1.266 5.341.297 7.266-18.928 37.603-38.09 75.088-57.256 112.7h-68.97a124990 124990 0 0 1 40.91-80.255zM1585.32 478V332.017c1.695 1.098 2.798 1.71 3.787 2.47 18.628 14.306 37.28 28.58 55.788 43.039 1.545 1.207 2.97 3.684 2.979 5.577.172 37.983.127 75.967.118 113.95 0 .474-.118.948-.215 1.682h-62.457V478zM304.16 293.585c-22.878-.958-44.975-3.485-65.696-12.879-8.753-3.968-16.65-8.998-21.8-17.575-.77-1.28-3.124-2.239-4.761-2.265-8.659-.136-17.324.016-25.984.193-3.115.063-6.179-.392-6.258-4.006-.087-3.95 3.06-4.374 6.387-4.331 9.63.124 19.261.044 29.438.044-2.118-18.361 10.094-26.064 24.268-31.99 12.176-5.09 24.985-7.835 38.502-9.451v11.823c-10.431 2.688-20.823 4.872-30.855 8.154-5.222 1.708-10.266 4.79-14.566 8.271-4.885 3.955-4.998 9.25-.266 13.345 3.918 3.391 8.738 6.115 13.602 7.974 23.293 8.9 47.687 10.426 72.282 9.533 19.015-.691 37.881-2.753 55.638-10.344 3.334-1.425 6.733-3.073 9.514-5.34 6.488-5.288 6.317-11.414-.192-16.713-7.721-6.287-17.135-8.662-26.523-10.917-5.794-1.392-11.696-2.337-17.815-3.535v-12.391c15.579 1.902 30.52 4.935 44.311 11.97 4.091 2.086 7.79 5.06 11.385 7.977 6.747 5.473 7.714 13.188 7.132 22.553 9.825-.792 19.086-1.72 28.37-2.15 2.151-.1 5.112.924 6.352 2.495 1.055 1.336 1.034 5.009-.071 6.199-1.5 1.617-5.111 3.204-6.734 2.455-8.553-3.944-17.344-.965-25.958-1.64-.886-.069-2.276.759-2.732 1.566-7.209 12.761-19.573 18.069-32.51 22.328-20.764 6.838-42.237 8.854-64.46 8.647zm85.956 68.645c3.736-3.278 7.16-6.374 10.936-9.788v11.686c8.906 0 17.18.037 25.452-.053.894-.01 1.82-1.154 2.662-1.07 2.432.24 5.395.156 7.05 1.526 1.195.99 1.58 4.796.625 6.096-1.29 1.757-4.863 3.792-6.328 3.146-9.556-4.214-19.33-.731-28.839-1.994-3.495 8.9-10.471 13.591-18.247 17.274-15.822 7.494-32.748 10.94-50.008 12.639-26.71 2.63-53.292 1.738-79.246-5.714-8.41-2.414-16.644-5.856-24.46-9.812-9.371-4.743-15.278-12.148-13.817-23.665.435-3.426.067-6.954.067-10.935 15.362 17.893 36.359 22.475 57.522 25.828 32.643 5.172 65.103 3.8 96.81-6.254 6.747-2.14 13.018-5.78 19.82-8.91zm-98.611-37.503c28.565 1.28 56.39.08 83.138-9.849 10.086-3.744 19.173-9.084 26.419-18.73 0 7.486 1.097 14.4-.38 20.71-1.01 4.315-4.977 8.62-8.725 11.483-11.046 8.438-24.193 12.369-37.624 15.015-33.595 6.617-67.2 6.871-100.304-2.5-9.919-2.807-19.33-7.847-28.483-12.776-6.843-3.685-10.292-10.086-9.656-18.331.341-4.424.06-8.895.06-13.998 10.418 14.225 25.428 19.223 40.736 23.02 11.25 2.79 22.89 4.003 34.82 5.956z"/>
  <path fill="#FFF" d="M312.397 185.01c.05 9.304.208 18.112.103 26.916-.043 3.634.728 6.555 3.32 9.384 3.569 3.894 3.17 9.75-.2 13.096-3.458 3.433-9.04 3.628-13.193.46-4.72-3.6-4.632-10.126-.298-14.855 1.547-1.689 2.78-4.365 2.823-6.617.254-12.957.106-25.921.099-38.883 0-1.162-.38-2.565.131-3.434.911-1.545 2.37-2.767 3.6-4.124 1.13 1.219 3.101 2.351 3.236 3.671.47 4.595.304 9.254.379 14.387z"/>
</svg>
